<?xml version="1.0" standalone="no"?>
<!DOCTYPE svg PUBLIC "-//W3C//DTD SVG 20010904//EN"
 "http://www.w3.org/TR/2001/REC-SVG-20010904/DTD/svg10.dtd">
<svg version="1.0" xmlns="http://www.w3.org/2000/svg"
 width="1979.000000pt" height="1979.000000pt" viewBox="0 0 1979.000000 1979.000000"
 preserveAspectRatio="xMidYMid meet">
<metadata>
Created by potrace 1.11, written by Peter Selinger 2001-2013
</metadata>
<g transform="translate(0.000000,1979.000000) scale(0.100000,-0.100000)"
fill="#000000" stroke="none">
<path d="M9538 19785 c-2 -1 -70 -6 -153 -9 -82 -4 -172 -9 -200 -11 -195 -16
-276 -23 -330 -30 -22 -2 -65 -7 -95 -10 -105 -11 -323 -41 -435 -60 -46 -8
-86 -14 -130 -20 -22 -4 -47 -8 -55 -10 -8 -2 -31 -7 -50 -10 -59 -10 -283
-55 -320 -65 -19 -5 -51 -12 -70 -15 -48 -8 -488 -121 -564 -144 -33 -11 -122
-38 -196 -61 -345 -106 -821 -287 -1105 -419 -48 -23 -89 -41 -92 -41 -7 0
-428 -211 -528 -265 -89 -48 -322 -181 -380 -216 -16 -11 -37 -22 -45 -26 -59
-28 -537 -344 -676 -447 -23 -17 -55 -40 -70 -51 -192 -138 -513 -398 -734
-595 -288 -256 -641 -615 -893 -905 -14 -16 -35 -41 -47 -55 -139 -160 -338
-413 -506 -645 -182 -250 -474 -704 -584 -910 -9 -16 -26 -46 -37 -66 -76
-131 -270 -516 -353 -699 -29 -63 -63 -139 -76 -168 -13 -29 -24 -55 -24 -57
0 -3 -9 -24 -19 -48 -35 -75 -132 -324 -181 -462 -17 -49 -35 -99 -40 -110 -7
-16 -30 -86 -35 -105 -1 -3 -4 -12 -8 -20 -25 -65 -170 -549 -182 -610 -2 -8
-13 -53 -25 -100 -24 -92 -28 -112 -36 -150 -3 -14 -7 -33 -10 -42 -3 -9 -7
-26 -9 -37 -3 -12 -7 -29 -9 -38 -8 -35 -46 -218 -50 -243 -3 -14 -9 -50 -15
-80 -14 -76 -18 -98 -41 -240 -12 -69 -23 -136 -25 -150 -3 -14 -7 -50 -11
-80 -3 -30 -8 -64 -10 -75 -4 -17 -10 -69 -19 -155 -7 -66 -17 -168 -20 -195
-1 -16 -6 -65 -10 -108 -4 -44 -9 -100 -10 -125 -2 -26 -7 -114 -11 -197 -5
-82 -9 -310 -9 -505 0 -374 8 -595 30 -835 3 -33 8 -89 11 -125 3 -36 7 -74 9
-86 2 -11 6 -52 10 -90 3 -38 13 -116 21 -174 8 -58 17 -121 20 -140 57 -410
167 -912 299 -1365 31 -106 103 -331 115 -360 5 -11 14 -38 21 -60 12 -41 102
-292 120 -332 14 -34 24 -60 59 -148 17 -44 40 -99 51 -122 10 -24 19 -45 19
-47 0 -3 13 -33 29 -68 16 -35 47 -104 69 -154 214 -480 579 -1120 887 -1554
68 -97 219 -305 225 -310 3 -3 34 -43 70 -90 104 -137 301 -376 392 -475 20
-22 46 -51 58 -65 160 -186 540 -567 774 -775 43 -38 88 -79 100 -90 65 -61
426 -353 574 -463 489 -366 975 -665 1521 -938 159 -79 334 -161 446 -209 17
-7 51 -22 77 -34 26 -11 123 -50 215 -87 92 -36 177 -69 188 -74 320 -130
1049 -343 1419 -414 11 -2 57 -12 101 -21 44 -9 87 -18 95 -20 53 -9 88 -16
110 -20 14 -3 70 -12 125 -21 55 -8 111 -17 125 -20 14 -2 45 -6 70 -10 25 -3
70 -9 100 -14 30 -5 80 -12 110 -15 30 -3 64 -7 75 -9 11 -2 55 -7 97 -11 43
-3 88 -8 100 -10 13 -2 66 -7 118 -10 52 -4 111 -8 130 -10 155 -13 399 -19
700 -20 501 0 752 15 1225 70 66 8 198 26 225 31 14 2 43 6 65 9 22 3 51 7 65
10 14 3 39 7 55 9 29 5 72 12 125 21 110 19 417 84 570 121 102 25 193 47 203
49 9 2 21 6 25 9 5 3 22 8 38 10 16 3 61 15 99 27 39 11 106 31 150 43 110 32
369 117 490 161 55 20 114 41 130 47 17 5 39 14 50 19 11 5 49 20 85 33 318
118 893 389 1190 560 25 14 52 29 60 32 8 4 74 42 146 86 73 43 135 78 138 78
3 0 25 13 48 29 24 16 115 76 203 133 88 57 211 139 274 183 62 44 123 87 135
95 11 8 33 23 47 35 14 11 36 27 49 35 12 8 28 20 34 25 6 6 38 30 71 55 112
84 251 195 375 300 47 40 96 81 110 93 25 20 166 148 269 242 73 67 400 393
477 475 102 111 177 193 229 254 28 32 55 64 60 70 115 129 298 359 443 556
67 91 125 170 129 175 5 6 33 46 63 90 29 44 68 100 85 125 102 148 304 479
415 680 29 52 66 120 83 150 108 194 341 689 427 906 17 43 38 93 45 109 51
114 208 569 280 810 15 50 33 108 40 130 21 65 159 632 171 700 2 17 11 62 19
100 8 39 17 86 20 105 3 19 8 42 10 50 4 14 6 31 21 128 3 20 10 64 15 97 6
33 13 74 15 90 2 17 10 80 18 140 16 122 26 210 32 270 2 22 6 58 9 80 2 22 7
78 11 125 3 47 7 101 9 120 30 301 26 1135 -9 1525 -3 39 -8 99 -11 135 -3 36
-7 76 -10 90 -2 14 -7 52 -10 85 -6 61 -9 81 -20 170 -18 135 -30 214 -40 265
-2 10 -7 40 -11 67 -3 26 -8 57 -10 68 -2 11 -13 72 -25 135 -11 63 -34 176
-50 250 -16 74 -31 144 -33 155 -7 37 -106 419 -127 490 -119 407 -325 968
-484 1320 -84 186 -274 569 -323 653 -17 28 -29 52 -25 52 3 0 -1 8 -9 18 -8
9 -32 49 -53 87 -198 363 -533 863 -834 1245 -117 149 -305 377 -330 400 -9 8
-31 33 -50 55 -173 204 -579 611 -827 830 -92 82 -101 89 -214 185 -36 30 -67
57 -70 60 -13 13 -208 166 -320 251 -421 320 -851 596 -1325 850 -241 129
-690 341 -870 411 -27 10 -63 25 -80 32 -30 13 -225 90 -235 92 -3 0 -12 4
-20 7 -119 53 -708 239 -920 292 -8 2 -71 18 -140 35 -69 17 -132 33 -140 35
-31 7 -176 37 -200 41 -14 3 -38 9 -55 14 -16 5 -50 12 -75 16 -86 13 -95 14
-140 24 -46 10 -159 30 -195 35 -11 1 -72 10 -135 19 -138 20 -160 23 -225 31
-27 3 -84 10 -125 15 -41 5 -109 12 -150 15 -41 4 -95 8 -120 10 -25 2 -88 7
-140 10 -52 4 -117 9 -145 11 -56 5 -892 14 -897 9z"/>
</g>
</svg>
